<?xml version="1.0" encoding="utf-8"?>
<!-- Generator: Adobe Illustrator 16.0.4, SVG Export Plug-In . SVG Version: 6.00 Build 0)  -->
<!DOCTYPE svg PUBLIC "-//W3C//DTD SVG 1.1//EN" "http://www.w3.org/Graphics/SVG/1.1/DTD/svg11.dtd">
<svg version="1.1" id="Layer_1" xmlns="http://www.w3.org/2000/svg" xmlns:xlink="http://www.w3.org/1999/xlink" x="0px" y="0px"
	 width="1146px" height="1281.12px" viewBox="0 0 1146 1281.12" enable-background="new 0 0 1146 1281.12" xml:space="preserve">
<path fill="#FFFFFF" d="M874.671,619.428h17.442v-39h-39v17.441l-65.764,60.603h-14.741l-33.925-33.925v-5.17h-17.65v17.651h5.172
	l33.922,33.923v6.107l-60.617,60.617l-53.822-118.249l17.752-39l-28.434-62.469h-17.717l8.031,17.649h-17.793l-8.031-17.649h-17.668
	v17.649h-17.656v-17.649h-17.669l-8.029,17.649h-17.792l8.028-17.649h-17.715l-28.435,62.469l17.752,39l-53.823,118.248
	l-60.617-60.617v-6.106l33.923-33.923h5.171v-17.651h-17.65v5.17l-33.925,33.925H358.65l-65.762-60.602v-17.442h-39v39h17.441
	l60.601,65.762v14.742l-33.924,33.925h-5.169v17.649h17.65v-5.171l33.922-33.922h6.109l73.854,73.854l-38.307,84.159L442.584,994.6
	l-167.53,167.531l-21.166,56.521l56.522-21.165l154.292-154.293L573,1281.119l108.297-237.927l154.293,154.294l56.521,21.166
	l-21.166-56.521L703.414,994.6l56.521-124.174l-38.307-84.158l73.854-73.854h6.108l33.923,33.922v5.171h17.648v-17.649h-5.17
	l-33.922-33.924v-14.743L874.671,619.428z M573,580.426l17.752,39l-17.752,39l-17.751-39L573,580.426z M609,1081.336v-82.91
	c3.734-0.313,8.418-0.667,14.467-6.304c1.598-1.614,8.867-9.363,11.186-13.197c1.201-1.984,3.27-5.066,3.27-7.793
	c-0.002-3.709-1.021-7.382-1.762-11.188c-2.094-10.771-4.762-22.849-1.885-34.563c-7.33,2.73-13.572,5.968-18.098,11.438
	c-4.562,5.509-6.617,12.796-8.424,21.241c-2.666-7.709-1.6-18.762,0.246-26.634c0,0-8.061,1.528-13.443,8.787
	c-4.186,6.219-4.271,18.44-3.27,28.28c0.336,3.303,0.703,6.624,1.006,9.93c0.572,6.285,1.924,13.93,0.377,20.11
	c-0.521,2.081-1.766,4.146-2.893,6.034c-3.943,6.608-23.319,34.941-23.628,38.46c-0.276,2.092,0.65,4.607,1.257,6.912
	c1.149,4.358,2.304,8.318,3.52,12.694c0.606,2.185,1.33,4.472,1.507,6.536c0.275,3.182-0.943,4.463-2.262,6.536
	c-3.668,5.768-7.395,10.584-11.439,16.216c-0.663,0.922-1.46,2.146-2.261,3.267c-0.925,1.292-2.042,2.427-2.138,3.771
	c-0.125,1.788,0.762,3.556,1.384,5.028c1.371,3.245,2.402,5.599,4.147,8.544c0.823,1.389,1.671,2.854,2.64,3.645
	c5.086,4.155,13.459-0.433,17.219-2.639c3.645-2.136,15.402-9.779,19.881-13.698c0.465-0.465,1.146-1.278,1.266-1.385
	c0.121-0.108,0.17-0.164,0.246-0.191c0.098-0.032,0.158,0.026,0.105,0.163L573,1160.426l-26.421-58.049
	c-1.333-2.919-0.821-5.062-0.665-5.681c0.638-2.527,2.209-5,3.77-7.165c3.127-4.333,5.928-7.973,9.303-12.442
	c1.704-2.259,3.545-4.773,3.645-7.166c0.088-2.164-1.022-4.43-2.012-6.66c-1.896-4.265-3.537-7.833-5.405-11.94
	c-0.931-2.047-1.941-4.199-2.388-6.284c-0.716-3.338,0.765-6.277,2.137-9.051c3.954-8.312,19.121-30.395,20.111-37.957
	c0.586-3.978-0.01-8.394-0.629-12.192c-1.23-7.537-3.695-20.412-8.673-30.165c-5.951-11.733-14.569-19.513-27.772-24.247
	c1.846,7.872,2.913,18.925,0.247,26.634c-1.808-8.445-3.863-15.732-8.423-21.241c-4.526-5.47-10.769-8.707-18.1-11.438
	c2.878,11.715,0.21,23.792-1.884,34.563c-0.74,3.806-1.759,7.479-1.76,11.188c0,2.727,2.066,5.809,3.267,7.793
	c2.32,3.834,9.588,11.583,11.188,13.197c6.048,5.637,10.73,5.99,14.465,6.304v82.91l-96-210.91l96.497-212
	c4.396,5.792-0.366,20.766,2.884,26.762c0.698,1.285,1.746,2.528,2.641,3.77c0.917,1.273,2.307,2.409,2.764,3.647
	c0.27,0.72,0.216,1.661,0.378,2.513c0.411,2.152,1.033,4.788,1.382,7.038c-0.319,0.061-2.496-3.248-3.518-4.774
	c-1.219-1.823-2.382-3.852-4.275-4.525c-2.933-1.048-5.597,0.637-6.66,2.513c-0.908,1.601-1.316,4.006-1.886,6.284
	c-7.011,28.067-13.852,55.244-20.99,83.583c-1.061,4.211-2.793,9.353-1.634,13.701c1.015,3.809,4.735,6.621,7.29,9.176
	c1.857,1.855,4.225,4.013,6.284,6.033c0.683,0.67,1.717,1.352,2.011,2.012c0.281,0.626,0.481,2.171,0.63,2.89
	c0.568,2.751,1.066,5.885,1.759,8.422c-0.763,0.863-6.009-11.394-17.597-12.821c-3.251-0.381-5.66,0.303-6.912,3.017
	c-0.854,1.848-1.194,4.136-1.76,6.41c-2.644,10.587-5.534,21.498-8.295,32.553c-0.541,2.163-1.33,4.338-1.509,6.662
	c-0.192,2.509,0.379,4.672,1.382,6.661c2.457,4.873,8.736,8.385,15.585,8.8c3.934,0.238,7.863-0.404,11.186-1.006
	c3.109-0.564,6.973-1.153,7.92-4.525c0.607-2.31-1.488-10.706-9.3-15.71c-0.895-0.562-4.203-2.325-5.257-3.083
	c8.511-0.168,14.653,3.146,19.585,6.729c5,3.631,8.774,8.739,11.437,14.705c0.305-6.756-2.211-11.364-4.399-15.209
	c8.696,2.448,13.104,9.186,16.088,17.346c-0.233-7.768-3.136-13.869-5.53-19.986c-2.444-6.241-5.127-12.844-4.524-20.988
	c0.891-12.075,6.785-18.943,14.831-23.883c2.658-1.631,5.649-2.587,9.05-3.77c6.218-2.163,13.083-3.877,18.601-7.164
	c2.545-1.517,5.072-3.586,7.039-5.908c2.076-2.444,3.707-5.061,4.275-8.547c1.344-8.282-4.006-13.636-8.549-16.716
	c-2.568-1.743-5.537-3.001-8.924-3.896c-3.416-0.905-7.164-1.541-11.438-1.132c-2.809,0.269-5.395,1.546-7.541,2.89
	c-2.144,1.342-3.913,3.036-5.655,4.776c-1.605,1.606-3.477,3.374-5.028,5.405c-2.298,3.005-3.878,6.182-2.891,11.311
	c-2.336-1.047-4.626-2.612-6.034-4.899c-0.78-1.273-1.094-2.958-1.256-5.281c-0.099-1.414-0.527-3.239-0.251-4.649
	c0.136-0.698,0.878-1.48,1.507-2.264c1.017-1.264,3.013-4.587,3.771-7.415c0.226-0.944,0.267-2.354,0.127-3.646
	c-0.121-1.088-0.701-2.199-0.629-3.143c0.07-0.907,1.238-2.528,1.884-3.644c1.428-2.465,2.487-4.455,3.896-6.914
	c1.068-1.86,2.15-2.953,2.39-5.403c0.336-3.458-0.59-7.389-1.13-11.061c-0.549-3.727-1.098-7.447-0.378-10.938
	c0.957-4.082,5.207-8.3,8.546-11.938c-1.049,2.907-2.744,5.122-3.017,8.546c-0.416,5.225,1.489,9.551,3.142,13.575
	c1.688,4.106,3.504,7.979,4.399,12.316c8.655,0.751,17.534,0.448,24.375-1.733c3.242-1.034,5.287-1.623,6.748-4.751
	c0.652-1.434,1.008-3.165,1.055-5.203c3.006,8.532-3.736,11.631-5.781,12.944c-5.469,3.513-12.402,7.06-15.461,12.572
	c12.531,1.782,22.699,6.479,28.029,15.71c1.811,3.137,2.955,7.015,3.268,11.312c0.541,7.426-2.033,12.818-5.027,17.092
	c-3.113,4.44-7.002,7.702-11.689,10.432c-9.697,5.655-21.704,7.684-26.395,17.85c-1.1,2.419-0.555,7.433,0.628,10.432
	c1.298,3.285,4.148,6.111,6.537,8.547c5.949,6.068,17.226,16.341,19.609,29.161c2.982-8.16,7.393-14.897,16.088-17.346
	c-2.188,3.845-4.703,8.453-4.398,15.209c2.662-5.966,6.436-11.074,11.436-14.705c4.934-3.583,11.074-6.896,19.586-6.729
	c-1.055,0.758-4.361,2.521-5.256,3.083c-7.812,5.004-9.906,13.4-9.303,15.71c0.949,3.372,4.812,3.961,7.922,4.525
	c3.322,0.602,7.252,1.244,11.186,1.006c6.85-0.415,13.129-3.927,15.586-8.8c1.002-1.989,1.574-4.152,1.381-6.661
	c-0.178-2.324-0.967-4.499-1.508-6.662c-2.762-11.055-5.652-21.966-8.295-32.553c-0.568-2.274-0.906-4.562-1.762-6.41
	c-1.252-2.714-3.658-3.397-6.912-3.017c-11.588,1.428-16.832,13.685-17.598,12.821c0.695-2.537,1.193-5.671,1.76-8.422
	c0.15-0.719,0.352-2.264,0.633-2.89c0.293-0.66,1.326-1.342,2.01-2.012c2.059-2.021,4.426-4.178,6.283-6.033
	c2.555-2.555,6.275-5.367,7.291-9.176c1.158-4.349-0.572-9.49-1.635-13.701c-7.139-28.339-13.979-55.516-20.99-83.583
	c-0.568-2.278-0.979-4.684-1.885-6.284c-1.062-1.876-3.729-3.561-6.66-2.513c-1.895,0.674-3.057,2.702-4.275,4.525
	c-1.023,1.526-3.199,4.835-3.52,4.774c0.352-2.25,0.973-4.886,1.383-7.038c0.162-0.852,0.107-1.793,0.379-2.513
	c0.457-1.238,1.846-2.374,2.764-3.647c0.895-1.241,1.943-2.484,2.641-3.77c3.25-5.996-1.514-20.97,2.883-26.762h0.002l96.496,212
	L609,1081.336z"/>
<path fill="#FFFFFF" d="M593.273,1274.884h-2.17v-0.932h5.441v0.932h-2.188v6.235h-1.084V1274.884z M597.746,1273.952h1.424l2,5.761
	l2.016-5.761h1.424v7.167h-1.066v-5.456l-1.949,5.456h-0.898l-1.949-5.439v5.439h-1V1273.952z"/>
<path fill="#FFFFFF" d="M650.631,66.159c0.686-0.848,4.225-5.94,8.141-11.62l0.955,0.76c0,0,9.797,9.272,20.299,9.272
	c10.512,0,20.174-7.879,22.443-14.496c1.955-5.691,0.064-12.455-5.787-16.885c-5.107-3.872-15.27-6.401-20.1-8.424
	c-3.953-1.659-9.664-2.868-9.664-9.125c0-5.933,5.488-11.774,11.543-11.774c8.104,0,11.873,12.807,13.197,16.317
	c0.357,0.931,1.168,0.673,1.52,0.09c0.166-0.293,9.627-13.763,10.02-14.456c0.365-0.687,0.607-2.089-0.016-2.487
	c-1.236-0.796-2.402,0.086-2.678,0.499c-0.279,0.43-4.936,6.467-4.936,6.467s-6.225-10.296-17.221-10.296
	c-9.963,0-18.207,8.105-18.863,15.414c-0.617,6.802,3.721,12.523,15.373,17.496c11.48,4.9,18.127,7.217,18.256,14.038
	c0.137,6.037-5.066,14.046-13.088,14.046c-7.705,0-12.793-8.12-13.742-12.919c-0.555-2.82,0.502-5.045,0.963-5.851
	c1.871-2.724,3.203-4.651,3.428-4.957c0.887-1.179-3.693-1.978-5.561,0.597c-1.871,2.575-17.42,24.877-18.371,26.264
	c-0.918,1.381-0.812,2.7-0.055,3.329C647.459,68.084,649.012,68.151,650.631,66.159"/>
<path fill="#FFFFFF" d="M446.699,64.291c7.986,0,13.66-4.113,14.903-5.519c1.243-1.395-0.162-1.906-0.944-1.485
	c-2.676,1.446-4.563,2.969-9.958,2.969c-9.399,0-14.867-8.57-17.078-13.805c-2.001-4.729-2.527-11.937-2.527-11.937h37.319
	c1.385,0,1.85,0.869,1.85,1.881c0,1.021-0.064,37.021-0.072,42.202c0,1.623,0.85,2.585,2.191,2.585c1.348,0,2.782-2.346,2.782-3.702
	V29.844c0-1.916-0.612-3.092-2.936-3.092h-39.721c-1.486,0-1.457-1.502-1.457-1.546c0-6.507,6.629-21.179,15.838-21.179
	c11.117,0,15.049,13.83,16.013,18.169c0.17,0.815,0.705,0.727,1.142,0.224c0.442-0.513,12.409-14.247,14.438-16.65
	c2.021-2.407-0.26-4.324-1.839-2.533c-2.037,2.317-9.46,10.192-9.46,10.192s-8.08-13.257-21.27-13.257
	c-10.132,0-26.457,9.094-26.457,33.192C419.456,54.348,433.731,64.291,446.699,64.291"/>
<path fill="#FFFFFF" d="M370.364,63.252c5.285,0,10.21-2.181,13.462-6.803c0.275-0.45,0.648-1.447,0.648-2.182
	c0-0.444-0.195-1.077-0.741-1.077c-0.377,0-0.838,0.547-1.207,1.077c-1.584,2.277-4.366,3.263-8.452,3.263
	c-4.459,0-8.355-2.266-10.396-4.977c-2.045-2.629-2.653-4.533-2.782-6.029c-0.085-0.901,0.555-1.312,1.75-1.709
	c3.089-1.018,18.665-5.939,19.88-6.405c0.903-0.339,1.656-0.841,1.656-1.837c0-3.175-1.101-5.411-3.142-7.313
	c-2.317-2.263-5.941-3.446-9.198-3.446c-1.575,0-4.641,0.55-7.046,1.634c-7.249,3.264-11.149,10.512-11.149,17.765
	C353.647,55.811,360.337,63.252,370.364,63.252 M370.919,28.175c4.083,0,6.091,2.949,6.091,5.495c0,1.806-1.369,2.782-5.204,4.372
	c-4.192,1.733-9.189,3.798-10.347,3.71c-0.632-0.044-0.952-0.551-0.915-1.035C360.896,35.4,365.221,28.175,370.919,28.175"/>
<path fill="#FFFFFF" d="M590.477,53.19c-0.377,0-0.84,0.547-1.211,1.077c-1.58,2.277-4.363,3.263-8.453,3.263
	c-4.451,0-8.355-2.266-10.396-4.977c-2.041-2.629-2.648-4.533-2.786-6.029c-0.073-0.901,0.555-1.311,1.758-1.709
	c3.082-1.018,18.671-5.939,19.878-6.405c0.906-0.339,1.656-0.841,1.656-1.837c0-3.175-1.107-5.411-3.141-7.313
	c-2.324-2.263-5.939-3.446-9.191-3.446c-1.572,0-4.639,0.55-7.052,1.634c-7.249,3.265-11.153,10.512-11.153,17.765
	c0,10.598,6.69,18.039,16.719,18.039c5.289,0,10.213-2.181,13.457-6.805c0.283-0.448,0.656-1.445,0.656-2.18
	C591.217,53.823,591.029,53.19,590.477,53.19 M567.29,40.717c0.34-5.316,4.669-12.542,10.362-12.542
	c4.092,0,6.105,2.949,6.105,5.495c0,1.806-1.377,2.781-5.209,4.372c-4.189,1.732-9.19,3.796-10.36,3.71
	C567.565,41.708,567.249,41.201,567.29,40.717"/>
<path fill="#FFFFFF" d="M490.003,62.608c1.944,0,6.042-0.268,8.173-0.268c1.672,0,5.657,0.268,7.893,0.268
	c1.105,0,1.992-0.227,1.992-0.848c0-0.548-0.324-0.771-1.713-1.133c-3.997-1.088-4.362-2.182-4.738-3.992
	c-0.462-2.448-0.272-20.133-0.272-33.357c0-12.14,0.551-17.733,0.831-19.993c0-0.361-0.559-1.09-0.831-0.907
	c-2.514,1.54-5.293,2.084-9.569,3.536c-1.016,0.268-1.3,0.909-1.3,1.265c0,0.369,0.008,1.205,1.855,1.726
	c2.267,0.641,2.231,1.81,2.231,2.537c0,2.717,0.28,7.58,0.28,14.285c0,14.317-0.466,24.104-0.652,27.548
	c-0.28,4.534-0.466,6.537-4.739,7.437c-1.012,0.187-1.616,0.404-1.616,1.048C487.828,62.479,488.145,62.608,490.003,62.608"/>
<path fill="#FFFFFF" d="M530.242,63.248c3.074,0,7.804-0.818,12.08-4.529c0.187,0,0.556,0.178,0.556,0.547
	c0,1.259-0.191,2.889-0.191,3.714c0,0.451,0.535,0.939,0.915,0.939c0.454,0,1.321,0.056,3.455-0.671
	c1.765-0.632,6.589-1.114,8.343-1.382c0.469-0.091,1.579-1.634,1.579-2.261c0-0.096-0.179-0.54-0.547-0.54
	c-0.931,0.079-3.993,0.283-5.013,0.283c-0.563,0-1.305-0.365-1.393-3.708c-0.094-1.735-0.272-2.364-0.272-20.671
	c0-27.734,0.36-26.341,0.826-31.143c0.106-0.809-0.466-1.44-0.741-1.44c-0.364,0-0.656,0.085-1.207,0.263
	c-2.414,0.909-7.334,2.265-9.468,2.548c-0.559,0.082-1.575,0.733-1.575,1.527c0,0.193,0.862,0.896,1.79,1.093
	c3.134,0.708,3.409,2.99,3.499,3.445c0.275,2.174,0.558,11.381,0.089,13.834c-0.089,0.451-0.373,1.089-0.742,0.993
	c-1.113-0.172-2.595-0.361-5.945-0.361c-2.499,0-7.974,0.906-12.254,3.44c-4.544,2.628-9.833,7.796-9.833,16.674
	c0,4.533,1.478,9.158,4.455,12.423C521.523,61.253,525.8,63.248,530.242,63.248 M525.613,31.89c1.673-1.632,4.265-3.172,7.237-3.172
	c1.855,0,5.387,0.991,7.982,3.536c1.114,1.088,1.956,2.715,2.046,3.444c0.275,4.255,0.372,9.243,0.275,15.035
	c-0.093,2.908-1.296,5.811-1.482,5.99c-1.669,1.177-3.811,2.174-6.78,2.174c-7.986,0-13.182-8.336-13.182-15.59
	C521.709,38.232,523.84,33.608,525.613,31.89"/>
<path fill="#FFFFFF" d="M600.789,60.753c-0.74,0.262-1.857,0.318-1.857,0.865c0,0.718,0.926,1.081,1.951,1.081
	c2.23,0,3.338-0.363,6.129-0.363c5.381,0,6.732,0.456,9.047,0.456c1.4,0,2.227-0.366,2.227-0.811c0-0.364-0.18-0.688-1.66-1.143
	c-1.387-0.36-1.885-0.419-2.611-0.865c-1.455-0.87-1.99-2.214-2.176-4.848c-0.086-1.349-0.559-16.828-0.559-18.639
	c0-0.46,0.279-1.269,0.93-1.998c0.934-0.997,3.58-2.382,5.164-2.382c1.859,0,4.078,1.092,5.1,1.989
	c0.287,0.186,1.119,0.368,1.32,0.276c0.547-0.276,2.238-2.16,3.256-3.605c0.271-0.461,0.016-0.537,0.016-0.713
	c0-0.819-0.846-3.088-4.648-3.088c-2.875,0-6.975,2.269-10.578,5.617c-0.188,0.094-0.656,0-0.656-0.354
	c0-1.726-0.25-3.936-0.875-5.516c-0.098-0.255-0.461-1.092-0.83-1.092c-0.283,0-0.742,0.359-1.852,1.092
	c-0.932,0.544-2.754,1.186-5.818,2.187c-1.018,0.365-1.207,1.263-1.207,1.542c0,0.36,1.078,0.668,2.482,1.427
	c0.652,0.36,1.701,2.105,1.701,3.739v17.297C604.689,58.354,604.406,59.573,600.789,60.753"/>
<path fill="#FFFFFF" d="M750.406,60.753c-0.732,0.262-1.855,0.318-1.855,0.865c0,0.718,0.928,1.081,1.957,1.081
	c2.227,0,3.336-0.363,6.131-0.363c5.381,0,6.727,0.456,9.055,0.456c1.381,0,2.229-0.366,2.229-0.811
	c0-0.364-0.188-0.688-1.672-1.143c-1.391-0.36-1.871-0.419-2.617-0.865c-1.455-0.87-1.984-2.214-2.17-4.848
	c-0.094-1.349-0.568-16.828-0.568-18.639c0-0.46,0.287-1.269,0.928-1.998c0.928-0.997,3.607-2.382,5.172-2.382
	c1.854,0,4.09,1.092,5.109,1.989c0.281,0.186,1.119,0.368,1.297,0.276c0.564-0.276,2.248-2.16,3.266-3.605
	c0.285-0.461,0.012-0.537,0.012-0.713c0-0.819-0.832-3.088-4.637-3.088c-2.867,0-6.967,2.269-10.578,5.617
	c-0.195,0.094-0.65,0-0.65-0.354c0-1.726-0.258-3.936-0.883-5.516c-0.088-0.255-0.457-1.092-0.836-1.092
	c-0.285,0-0.734,0.359-1.848,1.092c-0.928,0.544-2.742,1.186-5.812,2.187c-1.027,0.365-1.207,1.263-1.207,1.542
	c0,0.36,1.082,0.668,2.488,1.427c0.646,0.36,1.688,2.105,1.688,3.739v17.297C754.309,58.354,754.033,59.573,750.406,60.753"/>
<path fill="#FFFFFF" d="M727.24,63.336c4.824,0,10.109-2.089,13.354-5.618c0.756-0.725,1.219-1.636,1.219-2.632
	c0-0.446-0.742-0.725-1.77,0c-2.418,1.632-4.832,2.721-8.262,2.721c-4.828,0-9.385-2.256-11.691-6.069
	c-0.369-0.546-2.41-3.81-2.41-9.062c0-3.988,1.381-7.707,3.895-10.424c1.482-1.812,4.266-3.082,5.748-3.082
	c3.154,0,4.742,1.356,7.809,3.533c1.48,1.001,3.053,1.723,3.611,1.723c0.369,0,3.07-2.174,3.07-3.619
	c0-0.55-0.463-2.091-1.402-2.728c-1.758-1.356-5.84-2.074-8.629-2.074c-2.5,0-8.541,1.265-12.166,3.798
	c-5.379,3.536-8.99,9.067-8.99,15.682c0,3.803,1.283,8.068,2.867,10.597C716.461,60.351,721.381,63.336,727.24,63.336"/>
<path fill="#FFFFFF" d="M798.691,63.426c4.158,0,7.787-1.002,11.506-3.616c3.441-2.181,8.07-8.074,8.07-15.592
	c0-11.419-9.375-18.485-18.568-18.485c-6.217,0-10.859,2.528-13.744,4.975c-3.523,2.904-6.488,7.248-6.488,14.14
	c0,4.54,2.883,10.697,6.855,13.874C789.766,61.524,794.406,63.426,798.691,63.426 M791.908,31.076
	c1.939-1.631,4.078-2.633,6.033-2.633c2.41,0,5.748,1.36,7.801,3.54c3.52,3.985,4.639,9.155,4.639,13.861
	c0,3.898-1.857,9.523-4.186,11.961c-2.592,2.546-4.641,2.992-5.645,2.992c-4.467,0-9.764-3.26-12.08-10.069
	c-0.746-2.26-1.111-5.061-1.111-8.048C787.359,37.956,789.486,33.249,791.908,31.076"/>
<path fill="#FFFFFF" d="M825.902,62.613c1.951,0,6.033-0.272,8.164-0.272c1.678,0,5.666-0.219,7.904-0.219h4.455
	c1.953,0,6.039,0.219,8.178,0.219c1.631,0,5.484,0.257,7.727,0.271c5.504,0.377,14.697,0.819,17.236,0.819
	c2.875,0,6.066-1.008,7.684-2.085c2.215-1.634,5.102-4.713,4.857-8.886c-0.254-4.073-2.465-7.162-7.852-10.144
	c-6.408-3.351-9.521-5.719-9.699-8.79c-0.113-1.906,1.434-5.62,5.248-5.62c3.07,0,5.475,1.799,7.777,6.064
	c0.525,0.998,1.125,1.542,1.484,1.542c0.75,0,1.064-0.813,1.025-1.632c-0.041-0.632-0.502-3.707-0.604-5.348
	c-0.023-0.54-0.615-1.167-0.814-1.263c-0.199-0.093-1.988-0.819-3.029-0.997c-1.041-0.269-3.01-0.541-4.773-0.541
	c-3.148,0-5.609,0.809-7.311,1.896c-3.398,2.078-4.805,5.08-4.633,8.159c0.262,4.26,3.418,7.427,6.305,9.151
	c2.984,1.817,3.561,2.267,5.881,3.804c2.977,1.73,4.387,3.623,4.543,6.069c0.09,1.733-0.521,3.907-1.846,4.994
	c-0.977,0.713-2.418,1.35-3.629,1.35c-3.344,0-5.219-0.562-8.088-5.17c-0.619-1.002-1.141-1.446-1.895-1.446
	c-0.535,0-0.682,0.901-0.611,1.904c0.064,1.228-1.551,5.177-6.857,4.372c-0.023-0.004-0.045,0.005-0.045,0.005
	c-3.912-1.083-4.279-2.173-4.648-3.962c-0.475-2.453-0.283-20.347-0.283-33.579c0-12.138,0.555-17.729,0.842-19.99
	c0-0.363-0.559-1.091-0.842-0.904c-2.506,1.533-5.289,2.078-9.562,3.53c-1.023,0.272-1.303,0.915-1.303,1.265
	c0,0.362,0.627,0.855,2.287,1.279c1.219,0.309,1.803,1.4,1.803,2.136c0,2.71,0.283,8.432,0.283,15.14
	c0,14.309-0.477,24.684-0.664,28.125c-0.262,4.529-0.449,5.583-4.729,6.493c-0.705,0.123-2.73,0.142-3.639-0.106
	c-3.984-1.072-4.357-1.618-4.713-3.44c-0.486-2.452-0.293-20.296-0.293-33.528c0-12.138,0.568-17.729,0.848-19.99
	c0-0.363-0.555-1.091-0.848-0.904c-2.494,1.533-5.289,2.078-9.564,3.53c-1.01,0.272-1.287,0.915-1.287,1.265
	c0,0.362,0.938,0.873,2.299,1.372c1.381,0.484,1.779,1.307,1.779,2.043c0,2.71,0.285,8.432,0.285,15.14
	c0,14.309-0.465,24.639-0.654,28.083c-0.271,4.527-0.465,6.162-4.734,7.066c-1.025,0.176-1.641,0.344-1.641,0.973
	C823.707,62.588,824.051,62.613,825.902,62.613"/>
<path fill="#FFFFFF" d="M257.427,15.775c0.284-1.955,0.271-2.223,0.636-3.15c0.356-0.926,1.223-1.653,3.304-1.653h15.754V50.45
	c-0.34,6.486-0.141,8.17-7.192,9.743c-0.996,0.202-1.753,0.608-1.753,1.356c0,0.639,0.757,1.238,2.956,1.238
	c1.429,0,6.07-0.748,11.558-0.748c4.831,0,10.679,0.532,11.558,0.532c1.106,0,2.568-0.107,2.568-1.29
	c0-0.74-1.033-1.088-2.459-1.417c-6.804-1.497-6.394-2.784-6.953-7.608c-0.199-1.831-0.308-5.522-0.356-9.641V10.972h21.087
	c1.863,0.157,4.188,0.712,4.422,2.736c0.373,2.627,0.287,5.07,0.287,8.149c0,23.208-0.655,29.58-0.931,33.386
	c-0.279,3.352-1.207,4.343-3.62,5.156c-1.956,0.544-2.386,0.781-2.386,1.232c0,0.9,0.997,0.98,1.819,0.98
	c1.587,0,4.924-0.276,7.067-0.276c2.227,0,6.872,0.186,7.605,0.186c1.308,0,2.053-0.071,2.053-0.89c0-0.451-0.473-0.773-1.769-1.144
	c-2.134-0.53-3.442-1.087-3.621-4.066c-0.097-3.274-0.097-15.559,0.179-19.363c0.101-2.814,1.308-4.263,1.494-4.435
	c0.364-0.365,3.426-2.091,7.419-2.091c3.625,0,6.042,1.259,7.516,2.99c1.029,1.179,1.491,4.072,1.491,9.053
	c0,1.456,0.19,11.935,0,13.659c-0.373,3.444-0.891,3.863-2.017,4.441c-1.021,0.533-1.737,0.547-1.737,1.094
	c0,0.641,0.243,0.752,1.644,0.752c2.685,0,3.596-0.186,5.734-0.186c3.155,0,4.18,0.276,7.331,0.276c1.769,0,2.251-0.161,2.251-0.98
	c0-0.547-0.482-0.773-2.345-1.144c-2.409-0.53-3.62-1.247-3.62-3.523c-0.089-5.445-0.276-11.569-0.369-17.282
	c0-3.889-0.834-7.338-2.693-9.787c-1.948-2.625-5.196-4.162-9.837-4.162c-3.904,0-7.893,1.896-11.696,5.254
	c-0.101,0.085-0.648,0-0.648-0.547c0-2.633,0.369-20.534,1.292-27.068c0-0.268-0.182-0.995-0.555-0.995
	c-0.554,0-1.393,0.454-1.761,0.638c-1.924,1.247-5.127,2.577-8.978,2.921c-8.133-0.002-29.572-0.01-36.226-0.01
	c-7.966,0-14.037-0.449-17.062,2.759c-2.649,2.811-2.001,4.935-1.79,7.022C254.277,17.773,257.16,17.743,257.427,15.775"/>
<path fill="#FFFFFF" d="M903.496,39.71c3.564,0,6.451-2.883,6.451-6.45c0-3.562-2.887-6.453-6.451-6.453
	c-3.562,0-6.455,2.891-6.455,6.453C897.041,36.827,899.934,39.71,903.496,39.71 M903.496,27.756c2.996,0,5.439,2.474,5.439,5.504
	c0,3.031-2.443,5.503-5.439,5.503c-2.992,0-5.414-2.472-5.414-5.503C898.082,30.229,900.504,27.756,903.496,27.756"/>
<path fill="#FFFFFF" d="M902.371,33.902h1.072l1.619,2.883h1.139l-1.691-3.004c0.875-0.275,1.518-0.916,1.518-1.947
	c0-1.195-1-2.12-2.227-2.12h-2.402v7.071h0.973V33.902z M902.371,30.584h1.318c0.783,0,1.338,0.536,1.338,1.25
	c0,0.712-0.555,1.234-1.338,1.234h-1.318V30.584z"/>
<polygon fill="#FFFFFF" points="1088.4,115.258 1078.391,110.702 67.608,110.702 57.599,115.258 67.608,119.814 1078.391,119.814 
	"/>
<polygon fill="#FFFFFF" points="582.32,115.258 573,135.734 563.68,115.258 573,94.782 "/>
<path fill="#FFFFFF" d="M246.373,351.604l0.192-7.127h1.534c11.96,0,17.774-5.956,17.774-18.205V217.589
	c0-12.177-5.849-18.097-17.882-18.097h-1.575v-7.45H316v7.45h-1.575c-12.032,0-17.882,5.92-17.882,18.097v102.017
	c0,16.518,10.983,24.547,33.577,24.547c8.532,0,16.173-1.129,22.712-3.356c6.437-2.191,12.317-6.356,17.479-12.38
	c5.151-6.009,8.465-13.931,9.85-23.548l0.205-1.424l7.106,0.374l-2.872,47.784H246.373z"/>
<path fill="#FFFFFF" d="M610.645,351.604v-7.424l1.551-0.026c12.193-0.199,18.123-6.049,18.123-17.882V217.589
	c0-11.977-5.93-17.897-18.123-18.097l-1.551-0.025v-7.425h83.92c11.613,0,22.732,2.1,33.051,6.241
	c10.543,4.363,19.639,10.185,27.057,17.311c7.424,7.279,13.357,15.719,17.65,25.098c4.652,9.966,7.09,20.418,7.236,31.055
	c0.58,21.74-6.617,40.709-21.393,56.358c-14.717,15.592-33.041,23.498-54.463,23.498H610.645z M660.771,319.606
	c0,16.083,9.365,23.902,28.633,23.902c7.957,0,15.232-1.128,21.627-3.352c6.393-2.2,12.725-6.618,18.824-13.134
	c5.977-6.394,10.525-14.262,13.521-23.387c3.225-9.606,4.717-20.311,4.436-31.828c-0.629-19.934-7.256-37.066-19.697-50.907
	c-5.975-6.667-13.588-11.881-22.635-15.501c-9.088-3.634-18.258-5.477-27.256-5.477h-17.453V319.606z"/>
<path fill="#FFFFFF" d="M579.197,343.617c-9.741-0.271-16.666-5.48-21.165-15.908l-56.411-135.774h-9.446l-37.503,98.593h-14.554
	c0,0-5.447,14.226-6.218,16.242c5.579-6.327,10.164-7.021,17.293-7.098l-10.678,28.072c-4.141,10.684-11.023,15.878-21.042,15.878
	c-0.189,0-0.38-0.002-0.571-0.005l-1.606-0.032v7.911h42.818v-7.88h-1.575c-5.524,0-9.132-1.194-10.723-3.547
	c-1.583-2.34-1.353-6.098,0.691-11.192l11.191-29.223l53.255-0.062l11.849,29.31c2.075,5.156,2.326,8.958,0.745,11.298
	c-1.532,2.269-4.972,3.418-10.225,3.418l-2.029-0.021v7.899h67.433v-7.837L579.197,343.617z M485.666,232.014
	c12.311,30.662,20.216,50.271,23.59,58.514H463.3C466.295,282.724,473.789,263.121,485.666,232.014"/>
<path fill="#FFFFFF" d="M210.462,290.239c-7.792-15.863-22.622-27.741-40.686-32.591c-0.897-0.24-1.808-0.612-2.916-1.08
	c0.308-0.193,0.611-0.381,0.906-0.566c2.095-1.307,3.903-2.436,5.747-3.454c14.314-7.915,22.259-31.124,19.295-45.063
	c-3.473-16.33-13.601-28.431-30.103-35.969c-8.764-4.003-17.532-6.032-26.063-6.032c-14.263,0-28.134,5.626-41.23,16.724
	c-0.747,0.634-1.463,1.265-2.248,1.954c-0.435,0.384-0.892,0.786-1.387,1.217c0.003-2.299-0.008-4.598-0.018-6.845
	c-0.015-3.362-0.032-6.839,0-10.267c0-0.977-0.724-2.029-2.316-2.029c-1.954,0-5.385,1.556-5.414,1.571
	c-6.177,3.027-12.787,4.499-20.209,4.499c-2.826,0-5.821-0.223-8.9-0.663c-0.497-0.071-5.224-0.761-17.911-3.127
	c-0.742-0.139-1.49-0.284-2.247-0.43c-4.302-0.836-9.177-1.782-14.851-1.782c-1.301,0-2.62,0.05-3.919,0.148
	c-4.045,0.307-7.341,1.018-10.279,3.493c-2.161,1.821-3.773,4.359-4.662,7.34L0,180.81l3.276-1.67
	c2.451-1.249,5.043-2.159,7.702-2.702c1.848-0.378,3.601-0.547,5.688-0.547c1.32,0,2.793,0.067,4.502,0.206
	c4.733,0.384,9.173,1.133,13.573,2.291c4.753,1.25,9.397,2.937,13.802,5.011c3.148,1.484,4.587,2.187,5.68,3.319
	c3.448,3.571,3.415,8.882,3.399,11.477c-0.022,3.851-0.026,29.115-0.023,58.034H43.043c0,0-5.446,14.227-6.217,16.242
	c6.241-7.078,11.229-7.109,19.938-7.109l0.834-0.001c0.006,40.769,0.022,84.998,0.023,85.794c0,12.803-6.15,19.026-18.803,19.026
	h-1.575v7.653h99.608c9.141,0,16.544-0.222,23.298-0.699c24.348-1.72,42.11-14.351,51.367-36.528
	C218.533,323.791,218.159,305.903,210.462,290.239 M91.761,201.157c0.654-1.271,3.809-6.803,11.823-12.672
	c6.536-4.805,14.58-7.451,22.648-7.451c6.027,0,11.806,1.519,16.716,4.393c8.637,5.058,14.072,12.608,16.154,22.44
	c2.865,13.517-0.174,28.287-7.743,37.629c-5.69,7.022-13.667,10.733-23.07,10.733H91.761V201.157z M172.141,350.102
	c-0.026,0.031-0.085,0.105-0.171,0.223c-2.434,3.327-16.682,19.924-58.253,19.924c-1.518,0-3.07-0.022-4.661-0.067
	c-12.446-0.357-17.295-5.692-17.295-19.027v-85.834l20.968-0.024c14.372,0.079,21.17,0.668,27.796,2.32
	c13.832,3.449,21.263,9.6,30.914,20.472C186.577,305.145,186.892,332.963,172.141,350.102"/>
<path fill="#FFFFFF" d="M943.434,303.389l-0.092,1.617c-1.459,26.414-17.822,39.255-50.023,39.255
	c-22.664,0-33.684-8.065-33.684-24.655v-48.591h18.311c14.35,0,21.324,7.291,21.324,22.29v1.575h7.34v-56.398h-7.34v1.575
	c0,14.709-6.975,21.859-21.324,21.859h-18.311v-61.994h37.658c22.592,0,34.281,10.385,35.734,31.749l0.115,1.711l7.312-1.125
	l-2.549-40.215H809.508v7.476l1.602-0.026l0.594-0.005c5.783,0,10.154,1.445,12.99,4.296c2.938,2.955,4.412,7.598,4.379,13.807
	v44.326h-14.555c0,0-5.445,14.226-6.219,16.242c6.242-7.078,11.23-7.109,19.939-7.109h0.834v55.222
	c0,11.767-5.896,17.617-18.025,17.883l-1.539,0.033v7.416h138.076l2.867-47.629L943.434,303.389z"/>
<path fill="#FFFFFF" d="M1061.771,380.601c-18.121-0.877-31.371-4.561-45.73-12.712c-1.6-0.917-7.756-5.85-12.535-11.311
	c-0.701-0.56-1.398-0.891-2.127-1.011c-0.205-0.033-0.418-0.05-0.633-0.05c-4.02,0-9.08,5.529-12.594,13.758l-0.592,1.383
	l-7.734-2.888l23.537-63.063l7.49,2.796l-0.148,1.231c-1.635,13.556-1.156,24.909,1.469,34.626l0.168-0.086l0.432,2.048
	c0.016,0.065,1.719,7.711,14.098,15.014c14.699,8.793,27.936,9.743,32.945,9.742c1.148,0,1.791-0.053,1.799-0.053l0.1-0.008
	l0.102,0.004c0.787,0.035,1.566,0.052,2.346,0.052h0.004c22.531-0.001,40.84-14.386,45.564-35.794
	c2.281-10.345,0.234-19.976-6.084-28.625c-7.131-9.761-17.166-16.372-32.533-21.433c-2.121-0.698-4.248-1.378-6.377-2.059
	c-10.941-3.498-22.256-7.115-32.484-13.221c-9.617-5.738-19.611-12.225-26.836-22.795c-8.008-11.719-10.607-26.253-7.127-39.877
	c3.566-13.97,12.928-25.434,26.357-32.277c14.039-7.155,28.613-10.632,44.559-10.632c9.014,0,18.594,1.17,28.473,3.478
	c0.354,0.082,1.971,0.521,1.971,0.521c4.574,1.452,8.816,2.179,12.668,2.179c13.229-0.001,18.379-8.363,19.641-10.926l0.68-1.382
	l6.693,3.115l-17.09,45.527l-6.717-2.287l0.275-1.358c2.234-11.003-7.705-18.55-15.16-22.559l-2.119-1.076
	c-4.137-2.113-8.898-3.657-14.156-4.59c-5.426-0.962-9.953-1.41-14.248-1.41c-4.352,0-8.365,0.468-12.271,1.432
	c-18.73,4.624-30.209,22.607-26.699,41.828c2.768,15.158,12.002,25.297,29.943,32.879c9.275,3.919,19.199,6.85,28.795,9.684
	l3.32,0.982c11.436,3.394,21.652,6.726,30.875,13.149c17.193,11.971,24.33,29.572,21.211,52.314
	c-3.367,24.542-18.316,40.757-45.707,49.571c-11.863,3.817-24.02,5.874-36.16,6.119v0.1L1061.771,380.601z"/>
</svg>
