<svg xmlns="http://www.w3.org/2000/svg" width="1146" height="1281.12"><path fill="#533f39" d="M874.671 619.428h17.442v-39h-39v17.441l-65.764 60.603h-14.741l-33.925-33.925v-5.17h-17.65v17.651h5.172l33.922 33.923v6.107l-60.617 60.617-53.822-118.249 17.752-39-28.434-62.469h-17.717l8.031 17.649h-17.793l-8.031-17.649h-17.668v17.649h-17.656v-17.649h-17.669l-8.029 17.649h-17.792l8.028-17.649h-17.715l-28.435 62.469 17.752 39-53.823 118.248-60.617-60.617v-6.106l33.923-33.923h5.171v-17.651h-17.65v5.17l-33.925 33.925H358.65l-65.762-60.602v-17.442h-39v39h17.441l60.601 65.762v14.742l-33.924 33.925h-5.169v17.649h17.65v-5.171l33.922-33.922h6.109l73.854 73.854-38.307 84.159L442.584 994.6l-167.53 167.531-21.166 56.521 56.522-21.165 154.292-154.293L573 1281.119l108.297-237.927 154.293 154.294 56.521 21.166-21.166-56.521L703.414 994.6l56.521-124.174-38.307-84.158 73.854-73.854h6.108l33.923 33.922v5.171h17.648v-17.649h-5.17l-33.922-33.924v-14.743l60.602-65.763zM573 580.426l17.752 39-17.752 39-17.751-39 17.751-39zm36 500.91v-82.91c3.734-.313 8.418-.667 14.467-6.304 1.598-1.614 8.867-9.363 11.186-13.197 1.201-1.984 3.27-5.066 3.27-7.793-.002-3.709-1.021-7.382-1.762-11.188-2.094-10.771-4.762-22.849-1.885-34.563-7.33 2.73-13.572 5.968-18.098 11.438-4.562 5.509-6.617 12.796-8.424 21.241-2.666-7.709-1.6-18.762.246-26.634 0 0-8.061 1.528-13.443 8.787-4.186 6.219-4.271 18.44-3.27 28.28.336 3.303.703 6.624 1.006 9.93.572 6.285 1.924 13.93.377 20.11-.521 2.081-1.766 4.146-2.893 6.034-3.943 6.608-23.319 34.941-23.628 38.46-.276 2.092.65 4.607 1.257 6.912 1.149 4.358 2.304 8.318 3.52 12.694.606 2.185 1.33 4.472 1.507 6.536.275 3.182-.943 4.463-2.262 6.536-3.668 5.768-7.395 10.584-11.439 16.216-.663.922-1.46 2.146-2.261 3.267-.925 1.292-2.042 2.427-2.138 3.771-.125 1.788.762 3.556 1.384 5.028 1.371 3.245 2.402 5.599 4.147 8.544.823 1.389 1.671 2.854 2.64 3.645 5.086 4.155 13.459-.433 17.219-2.639 3.645-2.136 15.402-9.779 19.881-13.698.465-.465 1.146-1.278 1.266-1.385.121-.108.17-.164.246-.191.098-.032.158.026.105.163l-28.221 62-26.421-58.049c-1.333-2.919-.821-5.062-.665-5.681.638-2.527 2.209-5 3.77-7.165 3.127-4.333 5.928-7.973 9.303-12.442 1.704-2.259 3.545-4.773 3.645-7.166.088-2.164-1.022-4.43-2.012-6.66-1.896-4.265-3.537-7.833-5.405-11.94-.931-2.047-1.941-4.199-2.388-6.284-.716-3.338.765-6.277 2.137-9.051 3.954-8.312 19.121-30.395 20.111-37.957.586-3.978-.01-8.394-.629-12.192-1.23-7.537-3.695-20.412-8.673-30.165-5.951-11.733-14.569-19.513-27.772-24.247 1.846 7.872 2.913 18.925.247 26.634-1.808-8.445-3.863-15.732-8.423-21.241-4.526-5.47-10.769-8.707-18.1-11.438 2.878 11.715.21 23.792-1.884 34.563-.74 3.806-1.759 7.479-1.76 11.188 0 2.727 2.066 5.809 3.267 7.793 2.32 3.834 9.588 11.583 11.188 13.197 6.048 5.637 10.73 5.99 14.465 6.304v82.91l-96-210.91 96.497-212c4.396 5.792-.366 20.766 2.884 26.762.698 1.285 1.746 2.528 2.641 3.77.917 1.273 2.307 2.409 2.764 3.647.27.72.216 1.661.378 2.513.411 2.152 1.033 4.788 1.382 7.038-.319.061-2.496-3.248-3.518-4.774-1.219-1.823-2.382-3.852-4.275-4.525-2.933-1.048-5.597.637-6.66 2.513-.908 1.601-1.316 4.006-1.886 6.284a43487.381 43487.381 0 0 1-20.99 83.583c-1.061 4.211-2.793 9.353-1.634 13.701 1.015 3.809 4.735 6.621 7.29 9.176 1.857 1.855 4.225 4.013 6.284 6.033.683.67 1.717 1.352 2.011 2.012.281.626.481 2.171.63 2.89.568 2.751 1.066 5.885 1.759 8.422-.763.863-6.009-11.394-17.597-12.821-3.251-.381-5.66.303-6.912 3.017-.854 1.848-1.194 4.136-1.76 6.41-2.644 10.587-5.534 21.498-8.295 32.553-.541 2.163-1.33 4.338-1.509 6.662-.192 2.509.379 4.672 1.382 6.661 2.457 4.873 8.736 8.385 15.585 8.8 3.934.238 7.863-.404 11.186-1.006 3.109-.564 6.973-1.153 7.92-4.525.607-2.31-1.488-10.706-9.3-15.71-.895-.562-4.203-2.325-5.257-3.083 8.511-.168 14.653 3.146 19.585 6.729 5 3.631 8.774 8.739 11.437 14.705.305-6.756-2.211-11.364-4.399-15.209 8.696 2.448 13.104 9.186 16.088 17.346-.233-7.768-3.136-13.869-5.53-19.986-2.444-6.241-5.127-12.844-4.524-20.988.891-12.075 6.785-18.943 14.831-23.883 2.658-1.631 5.649-2.587 9.05-3.77 6.218-2.163 13.083-3.877 18.601-7.164 2.545-1.517 5.072-3.586 7.039-5.908 2.076-2.444 3.707-5.061 4.275-8.547 1.344-8.282-4.006-13.636-8.549-16.716-2.568-1.743-5.537-3.001-8.924-3.896-3.416-.905-7.164-1.541-11.438-1.132-2.809.269-5.395 1.546-7.541 2.89-2.144 1.342-3.913 3.036-5.655 4.776-1.605 1.606-3.477 3.374-5.028 5.405-2.298 3.005-3.878 6.182-2.891 11.311-2.336-1.047-4.626-2.612-6.034-4.899-.78-1.273-1.094-2.958-1.256-5.281-.099-1.414-.527-3.239-.251-4.649.136-.698.878-1.48 1.507-2.264 1.017-1.264 3.013-4.587 3.771-7.415.226-.944.267-2.354.127-3.646-.121-1.088-.701-2.199-.629-3.143.07-.907 1.238-2.528 1.884-3.644 1.428-2.465 2.487-4.455 3.896-6.914 1.068-1.86 2.15-2.953 2.39-5.403.336-3.458-.59-7.389-1.13-11.061-.549-3.727-1.098-7.447-.378-10.938.957-4.082 5.207-8.3 8.546-11.938-1.049 2.907-2.744 5.122-3.017 8.546-.416 5.225 1.489 9.551 3.142 13.575 1.688 4.106 3.504 7.979 4.399 12.316 8.655.751 17.534.448 24.375-1.733 3.242-1.034 5.287-1.623 6.748-4.751.652-1.434 1.008-3.165 1.055-5.203 3.006 8.532-3.736 11.631-5.781 12.944-5.469 3.513-12.402 7.06-15.461 12.572 12.531 1.782 22.699 6.479 28.029 15.71 1.811 3.137 2.955 7.015 3.268 11.312.541 7.426-2.033 12.818-5.027 17.092-3.113 4.44-7.002 7.702-11.689 10.432-9.697 5.655-21.704 7.684-26.395 17.85-1.1 2.419-.555 7.433.628 10.432 1.298 3.285 4.148 6.111 6.537 8.547 5.949 6.068 17.226 16.341 19.609 29.161 2.982-8.16 7.393-14.897 16.088-17.346-2.188 3.845-4.703 8.453-4.398 15.209 2.662-5.966 6.436-11.074 11.436-14.705 4.934-3.583 11.074-6.896 19.586-6.729-1.055.758-4.361 2.521-5.256 3.083-7.812 5.004-9.906 13.4-9.303 15.71.949 3.372 4.812 3.961 7.922 4.525 3.322.602 7.252 1.244 11.186 1.006 6.85-.415 13.129-3.927 15.586-8.8 1.002-1.989 1.574-4.152 1.381-6.661-.178-2.324-.967-4.499-1.508-6.662-2.762-11.055-5.652-21.966-8.295-32.553-.568-2.274-.906-4.562-1.762-6.41-1.252-2.714-3.658-3.397-6.912-3.017-11.588 1.428-16.832 13.685-17.598 12.821.695-2.537 1.193-5.671 1.76-8.422.15-.719.352-2.264.633-2.89.293-.66 1.326-1.342 2.01-2.012 2.059-2.021 4.426-4.178 6.283-6.033 2.555-2.555 6.275-5.367 7.291-9.176 1.158-4.349-.572-9.49-1.635-13.701a42758.867 42758.867 0 0 1-20.99-83.583c-.568-2.278-.979-4.684-1.885-6.284-1.062-1.876-3.729-3.561-6.66-2.513-1.895.674-3.057 2.702-4.275 4.525-1.023 1.526-3.199 4.835-3.52 4.774.352-2.25.973-4.886 1.383-7.038.162-.852.107-1.793.379-2.513.457-1.238 1.846-2.374 2.764-3.647.895-1.241 1.943-2.484 2.641-3.77 3.25-5.996-1.514-20.97 2.883-26.762h.002l96.496 212L609 1081.336z"/><path fill="#533f39" d="M593.273 1274.884h-2.17v-.932h5.441v.932h-2.188v6.235h-1.084v-6.235zm4.473-.932h1.424l2 5.761 2.016-5.761h1.424v7.167h-1.066v-5.456l-1.949 5.456h-.898l-1.949-5.439v5.439h-1v-7.167zM650.631 66.159c.686-.848 4.225-5.94 8.141-11.62l.955.76s9.797 9.272 20.299 9.272c10.512 0 20.174-7.879 22.443-14.496 1.955-5.691.064-12.455-5.787-16.885-5.107-3.872-15.27-6.401-20.1-8.424-3.953-1.659-9.664-2.868-9.664-9.125 0-5.933 5.488-11.774 11.543-11.774 8.104 0 11.873 12.807 13.197 16.317.357.931 1.168.673 1.52.09.166-.293 9.627-13.763 10.02-14.456.365-.687.607-2.089-.016-2.487-1.236-.796-2.402.086-2.678.499-.279.43-4.936 6.467-4.936 6.467S689.343.001 678.347.001c-9.963 0-18.207 8.105-18.863 15.414-.617 6.802 3.721 12.523 15.373 17.496 11.48 4.9 18.127 7.217 18.256 14.038.137 6.037-5.066 14.046-13.088 14.046-7.705 0-12.793-8.12-13.742-12.919-.555-2.82.502-5.045.963-5.851 1.871-2.724 3.203-4.651 3.428-4.957.887-1.179-3.693-1.978-5.561.597-1.871 2.575-17.42 24.877-18.371 26.264-.918 1.381-.812 2.7-.055 3.329.772.626 2.325.693 3.944-1.299M446.699 64.291c7.986 0 13.66-4.113 14.903-5.519 1.243-1.395-.162-1.906-.944-1.485-2.676 1.446-4.563 2.969-9.958 2.969-9.399 0-14.867-8.57-17.078-13.805-2.001-4.729-2.527-11.937-2.527-11.937h37.319c1.385 0 1.85.869 1.85 1.881 0 1.021-.064 37.021-.072 42.202 0 1.623.85 2.585 2.191 2.585 1.348 0 2.782-2.346 2.782-3.702V29.844c0-1.916-.612-3.092-2.936-3.092h-39.721c-1.486 0-1.457-1.502-1.457-1.546 0-6.507 6.629-21.179 15.838-21.179 11.117 0 15.049 13.83 16.013 18.169.17.815.705.727 1.142.224.442-.513 12.409-14.247 14.438-16.65 2.021-2.407-.26-4.324-1.839-2.533-2.037 2.317-9.46 10.192-9.46 10.192S459.103.172 445.913.172c-10.132 0-26.457 9.094-26.457 33.192 0 20.984 14.275 30.927 27.243 30.927M370.364 63.252c5.285 0 10.21-2.181 13.462-6.803.275-.45.648-1.447.648-2.182 0-.444-.195-1.077-.741-1.077-.377 0-.838.547-1.207 1.077-1.584 2.277-4.366 3.263-8.452 3.263-4.459 0-8.355-2.266-10.396-4.977-2.045-2.629-2.653-4.533-2.782-6.029-.085-.901.555-1.312 1.75-1.709 3.089-1.018 18.665-5.939 19.88-6.405.903-.339 1.656-.841 1.656-1.837 0-3.175-1.101-5.411-3.142-7.313-2.317-2.263-5.941-3.446-9.198-3.446-1.575 0-4.641.55-7.046 1.634-7.249 3.264-11.149 10.512-11.149 17.765 0 10.598 6.69 18.039 16.717 18.039m.555-35.077c4.083 0 6.091 2.949 6.091 5.495 0 1.806-1.369 2.782-5.204 4.372-4.192 1.733-9.189 3.798-10.347 3.71a.95.95 0 0 1-.915-1.035c.352-5.317 4.677-12.542 10.375-12.542M590.477 53.19c-.377 0-.84.547-1.211 1.077-1.58 2.277-4.363 3.263-8.453 3.263-4.451 0-8.355-2.266-10.396-4.977-2.041-2.629-2.648-4.533-2.786-6.029-.073-.901.555-1.311 1.758-1.709 3.082-1.018 18.671-5.939 19.878-6.405.906-.339 1.656-.841 1.656-1.837 0-3.175-1.107-5.411-3.141-7.313-2.324-2.263-5.939-3.446-9.191-3.446-1.572 0-4.639.55-7.052 1.634-7.249 3.265-11.153 10.512-11.153 17.765 0 10.598 6.69 18.039 16.719 18.039 5.289 0 10.213-2.181 13.457-6.805.283-.448.656-1.445.656-2.18-.001-.444-.189-1.077-.741-1.077M567.29 40.717c.34-5.316 4.669-12.542 10.362-12.542 4.092 0 6.105 2.949 6.105 5.495 0 1.806-1.377 2.781-5.209 4.372-4.189 1.732-9.19 3.796-10.36 3.71-.623-.044-.939-.551-.898-1.035M490.003 62.608c1.944 0 6.042-.268 8.173-.268 1.672 0 5.657.268 7.893.268 1.105 0 1.992-.227 1.992-.848 0-.548-.324-.771-1.713-1.133-3.997-1.088-4.362-2.182-4.738-3.992-.462-2.448-.272-20.133-.272-33.357 0-12.14.551-17.733.831-19.993 0-.361-.559-1.09-.831-.907-2.514 1.54-5.293 2.084-9.569 3.536-1.016.268-1.3.909-1.3 1.265 0 .369.008 1.205 1.855 1.726 2.267.641 2.231 1.81 2.231 2.537 0 2.717.28 7.58.28 14.285 0 14.317-.466 24.104-.652 27.548-.28 4.534-.466 6.537-4.739 7.437-1.012.187-1.616.404-1.616 1.048 0 .719.317.848 2.175.848M530.242 63.248c3.074 0 7.804-.818 12.08-4.529.187 0 .556.178.556.547 0 1.259-.191 2.889-.191 3.714 0 .451.535.939.915.939.454 0 1.321.056 3.455-.671 1.765-.632 6.589-1.114 8.343-1.382.469-.091 1.579-1.634 1.579-2.261 0-.096-.179-.54-.547-.54-.931.079-3.993.283-5.013.283-.563 0-1.305-.365-1.393-3.708-.094-1.735-.272-2.364-.272-20.671 0-27.734.36-26.341.826-31.143.106-.809-.466-1.44-.741-1.44-.364 0-.656.085-1.207.263-2.414.909-7.334 2.265-9.468 2.548-.559.082-1.575.733-1.575 1.527 0 .193.862.896 1.79 1.093 3.134.708 3.409 2.99 3.499 3.445.275 2.174.558 11.381.089 13.834-.089.451-.373 1.089-.742.993-1.113-.172-2.595-.361-5.945-.361-2.499 0-7.974.906-12.254 3.44-4.544 2.628-9.833 7.796-9.833 16.674 0 4.533 1.478 9.158 4.455 12.423 2.875 2.988 7.152 4.983 11.594 4.983m-4.629-31.358c1.673-1.632 4.265-3.172 7.237-3.172 1.855 0 5.387.991 7.982 3.536 1.114 1.088 1.956 2.715 2.046 3.444.275 4.255.372 9.243.275 15.035-.093 2.908-1.296 5.811-1.482 5.99-1.669 1.177-3.811 2.174-6.78 2.174-7.986 0-13.182-8.336-13.182-15.59 0-5.075 2.131-9.699 3.904-11.417M600.789 60.753c-.74.262-1.857.318-1.857.865 0 .718.926 1.081 1.951 1.081 2.23 0 3.338-.363 6.129-.363 5.381 0 6.732.456 9.047.456 1.4 0 2.227-.366 2.227-.811 0-.364-.18-.688-1.66-1.143-1.387-.36-1.885-.419-2.611-.865-1.455-.87-1.99-2.214-2.176-4.848-.086-1.349-.559-16.828-.559-18.639 0-.46.279-1.269.93-1.998.934-.997 3.58-2.382 5.164-2.382 1.859 0 4.078 1.092 5.1 1.989.287.186 1.119.368 1.32.276.547-.276 2.238-2.16 3.256-3.605.271-.461.016-.537.016-.713 0-.819-.846-3.088-4.648-3.088-2.875 0-6.975 2.269-10.578 5.617-.188.094-.656 0-.656-.354 0-1.726-.25-3.936-.875-5.516-.098-.255-.461-1.092-.83-1.092-.283 0-.742.359-1.852 1.092-.932.544-2.754 1.186-5.818 2.187-1.018.365-1.207 1.263-1.207 1.542 0 .36 1.078.668 2.482 1.427.652.36 1.701 2.105 1.701 3.739v17.297c-.096 5.45-.379 6.669-3.996 7.849M750.406 60.753c-.732.262-1.855.318-1.855.865 0 .718.928 1.081 1.957 1.081 2.227 0 3.336-.363 6.131-.363 5.381 0 6.727.456 9.055.456 1.381 0 2.229-.366 2.229-.811 0-.364-.188-.688-1.672-1.143-1.391-.36-1.871-.419-2.617-.865-1.455-.87-1.984-2.214-2.17-4.848-.094-1.349-.568-16.828-.568-18.639 0-.46.287-1.269.928-1.998.928-.997 3.607-2.382 5.172-2.382 1.854 0 4.09 1.092 5.109 1.989.281.186 1.119.368 1.297.276.564-.276 2.248-2.16 3.266-3.605.285-.461.012-.537.012-.713 0-.819-.832-3.088-4.637-3.088-2.867 0-6.967 2.269-10.578 5.617-.195.094-.65 0-.65-.354 0-1.726-.258-3.936-.883-5.516-.088-.255-.457-1.092-.836-1.092-.285 0-.734.359-1.848 1.092-.928.544-2.742 1.186-5.812 2.187-1.027.365-1.207 1.263-1.207 1.542 0 .36 1.082.668 2.488 1.427.646.36 1.688 2.105 1.688 3.739v17.297c-.096 5.45-.372 6.669-3.999 7.849M727.24 63.336c4.824 0 10.109-2.089 13.354-5.618.756-.725 1.219-1.636 1.219-2.632 0-.446-.742-.725-1.77 0-2.418 1.632-4.832 2.721-8.262 2.721-4.828 0-9.385-2.256-11.691-6.069-.369-.546-2.41-3.81-2.41-9.062 0-3.988 1.381-7.707 3.895-10.424 1.482-1.812 4.266-3.082 5.748-3.082 3.154 0 4.742 1.356 7.809 3.533 1.48 1.001 3.053 1.723 3.611 1.723.369 0 3.07-2.174 3.07-3.619 0-.55-.463-2.091-1.402-2.728-1.758-1.356-5.84-2.074-8.629-2.074-2.5 0-8.541 1.265-12.166 3.798-5.379 3.536-8.99 9.067-8.99 15.682 0 3.803 1.283 8.068 2.867 10.597 2.968 4.269 7.888 7.254 13.747 7.254M798.691 63.426c4.158 0 7.787-1.002 11.506-3.616 3.441-2.181 8.07-8.074 8.07-15.592 0-11.419-9.375-18.485-18.568-18.485-6.217 0-10.859 2.528-13.744 4.975-3.523 2.904-6.488 7.248-6.488 14.14 0 4.54 2.883 10.697 6.855 13.874 3.444 2.802 8.084 4.704 12.369 4.704m-6.783-32.35c1.939-1.631 4.078-2.633 6.033-2.633 2.41 0 5.748 1.36 7.801 3.54 3.52 3.985 4.639 9.155 4.639 13.861 0 3.898-1.857 9.523-4.186 11.961-2.592 2.546-4.641 2.992-5.645 2.992-4.467 0-9.764-3.26-12.08-10.069-.746-2.26-1.111-5.061-1.111-8.048 0-4.724 2.127-9.431 4.549-11.604M825.902 62.613c1.951 0 6.033-.272 8.164-.272 1.678 0 5.666-.219 7.904-.219h4.455c1.953 0 6.039.219 8.178.219 1.631 0 5.484.257 7.727.271 5.504.377 14.697.819 17.236.819 2.875 0 6.066-1.008 7.684-2.085 2.215-1.634 5.102-4.713 4.857-8.886-.254-4.073-2.465-7.162-7.852-10.144-6.408-3.351-9.521-5.719-9.699-8.79-.113-1.906 1.434-5.62 5.248-5.62 3.07 0 5.475 1.799 7.777 6.064.525.998 1.125 1.542 1.484 1.542.75 0 1.064-.813 1.025-1.632-.041-.632-.502-3.707-.604-5.348-.023-.54-.615-1.167-.814-1.263-.199-.093-1.988-.819-3.029-.997-1.041-.269-3.01-.541-4.773-.541-3.148 0-5.609.809-7.311 1.896-3.398 2.078-4.805 5.08-4.633 8.159.262 4.26 3.418 7.427 6.305 9.151 2.984 1.817 3.561 2.267 5.881 3.804 2.977 1.73 4.387 3.623 4.543 6.069.09 1.733-.521 3.907-1.846 4.994-.977.713-2.418 1.35-3.629 1.35-3.344 0-5.219-.562-8.088-5.17-.619-1.002-1.141-1.446-1.895-1.446-.535 0-.682.901-.611 1.904.064 1.228-1.551 5.177-6.857 4.372-.023-.004-.045.005-.045.005-3.912-1.083-4.279-2.173-4.648-3.962-.475-2.453-.283-20.347-.283-33.579 0-12.138.555-17.729.842-19.99 0-.363-.559-1.091-.842-.904-2.506 1.533-5.289 2.078-9.562 3.53-1.023.272-1.303.915-1.303 1.265 0 .362.627.855 2.287 1.279 1.219.309 1.803 1.4 1.803 2.136 0 2.71.283 8.432.283 15.14 0 14.309-.477 24.684-.664 28.125-.262 4.529-.449 5.583-4.729 6.493-.705.123-2.73.142-3.639-.106-3.984-1.072-4.357-1.618-4.713-3.44-.486-2.452-.293-20.296-.293-33.528 0-12.138.568-17.729.848-19.99 0-.363-.555-1.091-.848-.904-2.494 1.533-5.289 2.078-9.564 3.53-1.01.272-1.287.915-1.287 1.265 0 .362.938.873 2.299 1.372 1.381.484 1.779 1.307 1.779 2.043 0 2.71.285 8.432.285 15.14 0 14.309-.465 24.639-.654 28.083-.271 4.527-.465 6.162-4.734 7.066-1.025.176-1.641.344-1.641.973.001.732.345.757 2.196.757M257.427 15.775c.284-1.955.271-2.223.636-3.15.356-.926 1.223-1.653 3.304-1.653h15.754V50.45c-.34 6.486-.141 8.17-7.192 9.743-.996.202-1.753.608-1.753 1.356 0 .639.757 1.238 2.956 1.238 1.429 0 6.07-.748 11.558-.748 4.831 0 10.679.532 11.558.532 1.106 0 2.568-.107 2.568-1.29 0-.74-1.033-1.088-2.459-1.417-6.804-1.497-6.394-2.784-6.953-7.608-.199-1.831-.308-5.522-.356-9.641V10.972h21.087c1.863.157 4.188.712 4.422 2.736.373 2.627.287 5.07.287 8.149 0 23.208-.655 29.58-.931 33.386-.279 3.352-1.207 4.343-3.62 5.156-1.956.544-2.386.781-2.386 1.232 0 .9.997.98 1.819.98 1.587 0 4.924-.276 7.067-.276 2.227 0 6.872.186 7.605.186 1.308 0 2.053-.071 2.053-.89 0-.451-.473-.773-1.769-1.144-2.134-.53-3.442-1.087-3.621-4.066-.097-3.274-.097-15.559.179-19.363.101-2.814 1.308-4.263 1.494-4.435.364-.365 3.426-2.091 7.419-2.091 3.625 0 6.042 1.259 7.516 2.99 1.029 1.179 1.491 4.072 1.491 9.053 0 1.456.19 11.935 0 13.659-.373 3.444-.891 3.863-2.017 4.441-1.021.533-1.737.547-1.737 1.094 0 .641.243.752 1.644.752 2.685 0 3.596-.186 5.734-.186 3.155 0 4.18.276 7.331.276 1.769 0 2.251-.161 2.251-.98 0-.547-.482-.773-2.345-1.144-2.409-.53-3.62-1.247-3.62-3.523-.089-5.445-.276-11.569-.369-17.282 0-3.889-.834-7.338-2.693-9.787-1.948-2.625-5.196-4.162-9.837-4.162-3.904 0-7.893 1.896-11.696 5.254-.101.085-.648 0-.648-.547 0-2.633.369-20.534 1.292-27.068 0-.268-.182-.995-.555-.995-.554 0-1.393.454-1.761.638-1.924 1.247-5.127 2.577-8.978 2.921-8.133-.002-29.572-.01-36.226-.01-7.966 0-14.037-.449-17.062 2.759-2.649 2.811-2.001 4.935-1.79 7.022.199 2.066 3.082 2.036 3.349.068M903.496 39.71a6.447 6.447 0 0 0 6.451-6.45 6.452 6.452 0 1 0-12.906 0 6.451 6.451 0 0 0 6.455 6.45m0-11.954c2.996 0 5.439 2.474 5.439 5.504 0 3.031-2.443 5.503-5.439 5.503-2.992 0-5.414-2.472-5.414-5.503s2.422-5.504 5.414-5.504"/><path fill="#533f39" d="M902.371 33.902h1.072l1.619 2.883h1.139l-1.691-3.004c.875-.275 1.518-.916 1.518-1.947 0-1.195-1-2.12-2.227-2.12h-2.402v7.071h.973v-2.883zm0-3.318h1.318c.783 0 1.338.536 1.338 1.25 0 .712-.555 1.234-1.338 1.234h-1.318v-2.484zM1088.4 115.258l-10.009-4.556H67.608l-10.009 4.556 10.009 4.556h1010.783z"/><path fill="#533f39" d="M582.32 115.258L573 135.734l-9.32-20.476L573 94.782zM246.373 351.604l.192-7.127h1.534c11.96 0 17.774-5.956 17.774-18.205V217.589c0-12.177-5.849-18.097-17.882-18.097h-1.575v-7.45H316v7.45h-1.575c-12.032 0-17.882 5.92-17.882 18.097v102.017c0 16.518 10.983 24.547 33.577 24.547 8.532 0 16.173-1.129 22.712-3.356 6.437-2.191 12.317-6.356 17.479-12.38 5.151-6.009 8.465-13.931 9.85-23.548l.205-1.424 7.106.374-2.872 47.784H246.373zM610.645 351.604v-7.424l1.551-.026c12.193-.199 18.123-6.049 18.123-17.882V217.589c0-11.977-5.93-17.897-18.123-18.097l-1.551-.025v-7.425h83.92c11.613 0 22.732 2.1 33.051 6.241 10.543 4.363 19.639 10.185 27.057 17.311 7.424 7.279 13.357 15.719 17.65 25.098 4.652 9.966 7.09 20.418 7.236 31.055.58 21.74-6.617 40.709-21.393 56.358-14.717 15.592-33.041 23.498-54.463 23.498h-93.058zm50.126-31.998c0 16.083 9.365 23.902 28.633 23.902 7.957 0 15.232-1.128 21.627-3.352 6.393-2.2 12.725-6.618 18.824-13.134 5.977-6.394 10.525-14.262 13.521-23.387 3.225-9.606 4.717-20.311 4.436-31.828-.629-19.934-7.256-37.066-19.697-50.907-5.975-6.667-13.588-11.881-22.635-15.501-9.088-3.634-18.258-5.477-27.256-5.477h-17.453v119.684zM579.197 343.617c-9.741-.271-16.666-5.48-21.165-15.908l-56.411-135.774h-9.446l-37.503 98.593h-14.554L433.9 306.77c5.579-6.327 10.164-7.021 17.293-7.098l-10.678 28.072c-4.141 10.684-11.023 15.878-21.042 15.878-.189 0-.38-.002-.571-.005l-1.606-.032v7.911h42.818v-7.88h-1.575c-5.524 0-9.132-1.194-10.723-3.547-1.583-2.34-1.353-6.098.691-11.192l11.191-29.223 53.255-.062 11.849 29.31c2.075 5.156 2.326 8.958.745 11.298-1.532 2.269-4.972 3.418-10.225 3.418l-2.029-.021v7.899h67.433v-7.837l-1.529-.042zm-93.531-111.603c12.311 30.662 20.216 50.271 23.59 58.514H463.3c2.995-7.804 10.489-27.407 22.366-58.514M210.462 290.239c-7.792-15.863-22.622-27.741-40.686-32.591-.897-.24-1.808-.612-2.916-1.08l.906-.566c2.095-1.307 3.903-2.436 5.747-3.454 14.314-7.915 22.259-31.124 19.295-45.063-3.473-16.33-13.601-28.431-30.103-35.969-8.764-4.003-17.532-6.032-26.063-6.032-14.263 0-28.134 5.626-41.23 16.724-.747.634-1.463 1.265-2.248 1.954-.435.384-.892.786-1.387 1.217.003-2.299-.008-4.598-.018-6.845-.015-3.362-.032-6.839 0-10.267 0-.977-.724-2.029-2.316-2.029-1.954 0-5.385 1.556-5.414 1.571-6.177 3.027-12.787 4.499-20.209 4.499-2.826 0-5.821-.223-8.9-.663-.497-.071-5.224-.761-17.911-3.127-.742-.139-1.49-.284-2.247-.43-4.302-.836-9.177-1.782-14.851-1.782-1.301 0-2.62.05-3.919.148-4.045.307-7.341 1.018-10.279 3.493-2.161 1.821-3.773 4.359-4.662 7.34L0 180.81l3.276-1.67a30.35 30.35 0 0 1 7.702-2.702c1.848-.378 3.601-.547 5.688-.547 1.32 0 2.793.067 4.502.206 4.733.384 9.173 1.133 13.573 2.291a80.62 80.62 0 0 1 13.802 5.011c3.148 1.484 4.587 2.187 5.68 3.319 3.448 3.571 3.415 8.882 3.399 11.477-.022 3.851-.026 29.115-.023 58.034H43.043l-6.217 16.242c6.241-7.078 11.229-7.109 19.938-7.109l.834-.001c.006 40.769.022 84.998.023 85.794 0 12.803-6.15 19.026-18.803 19.026h-1.575v7.653h99.608c9.141 0 16.544-.222 23.298-.699 24.348-1.72 42.11-14.351 51.367-36.528 7.017-16.816 6.643-34.704-1.054-50.368M91.761 201.157c.654-1.271 3.809-6.803 11.823-12.672 6.536-4.805 14.58-7.451 22.648-7.451 6.027 0 11.806 1.519 16.716 4.393 8.637 5.058 14.072 12.608 16.154 22.44 2.865 13.517-.174 28.287-7.743 37.629-5.69 7.022-13.667 10.733-23.07 10.733H91.761v-55.072zm80.38 148.945a4.55 4.55 0 0 0-.171.223c-2.434 3.327-16.682 19.924-58.253 19.924-1.518 0-3.07-.022-4.661-.067-12.446-.357-17.295-5.692-17.295-19.027v-85.834l20.968-.024c14.372.079 21.17.668 27.796 2.32 13.832 3.449 21.263 9.6 30.914 20.472 15.138 17.056 15.453 44.874.702 62.013M943.434 303.389l-.092 1.617c-1.459 26.414-17.822 39.255-50.023 39.255-22.664 0-33.684-8.065-33.684-24.655v-48.591h18.311c14.35 0 21.324 7.291 21.324 22.29v1.575h7.34v-56.398h-7.34v1.575c0 14.709-6.975 21.859-21.324 21.859h-18.311v-61.994h37.658c22.592 0 34.281 10.385 35.734 31.749l.115 1.711 7.312-1.125-2.549-40.215H809.508v7.476l1.602-.026.594-.005c5.783 0 10.154 1.445 12.99 4.296 2.938 2.955 4.412 7.598 4.379 13.807v44.326h-14.555s-5.445 14.226-6.219 16.242c6.242-7.078 11.23-7.109 19.939-7.109h.834v55.222c0 11.767-5.896 17.617-18.025 17.883l-1.539.033v7.416h138.076l2.867-47.629-7.017-.585zM1061.771 380.601c-18.121-.877-31.371-4.561-45.73-12.712-1.6-.917-7.756-5.85-12.535-11.311-.701-.56-1.398-.891-2.127-1.011a3.996 3.996 0 0 0-.633-.05c-4.02 0-9.08 5.529-12.594 13.758l-.592 1.383-7.734-2.888 23.537-63.063 7.49 2.796-.148 1.231c-1.635 13.556-1.156 24.909 1.469 34.626l.168-.086.432 2.048c.016.065 1.719 7.711 14.098 15.014 14.699 8.793 27.936 9.743 32.945 9.742 1.148 0 1.791-.053 1.799-.053l.1-.008.102.004c.787.035 1.566.052 2.346.052h.004c22.531-.001 40.84-14.386 45.564-35.794 2.281-10.345.234-19.976-6.084-28.625-7.131-9.761-17.166-16.372-32.533-21.433-2.121-.698-4.248-1.378-6.377-2.059-10.941-3.498-22.256-7.115-32.484-13.221-9.617-5.738-19.611-12.225-26.836-22.795-8.008-11.719-10.607-26.253-7.127-39.877 3.566-13.97 12.928-25.434 26.357-32.277 14.039-7.155 28.613-10.632 44.559-10.632 9.014 0 18.594 1.17 28.473 3.478.354.082 1.971.521 1.971.521 4.574 1.452 8.816 2.179 12.668 2.179 13.229-.001 18.379-8.363 19.641-10.926l.68-1.382 6.693 3.115-17.09 45.527-6.717-2.287.275-1.358c2.234-11.003-7.705-18.55-15.16-22.559l-2.119-1.076c-4.137-2.113-8.898-3.657-14.156-4.59-5.426-.962-9.953-1.41-14.248-1.41-4.352 0-8.365.468-12.271 1.432-18.73 4.624-30.209 22.607-26.699 41.828 2.768 15.158 12.002 25.297 29.943 32.879 9.275 3.919 19.199 6.85 28.795 9.684l3.32.982c11.436 3.394 21.652 6.726 30.875 13.149 17.193 11.971 24.33 29.572 21.211 52.314-3.367 24.542-18.316 40.757-45.707 49.571-11.863 3.817-24.02 5.874-36.16 6.119v.1l-1.654-.049z"/></svg>